<svg version="1" xmlns="http://www.w3.org/2000/svg" width="666.667" height="666.667" viewBox="0 0 500.000000 500.000000"><path d="M210.7 1c-2.7.5-5.2 1.1-5.5 1.4-.8.9 4.4.6 13.8-.9l8.5-1.3h-6c-3.3 0-8.2.4-10.8.8zM275 .3c.3.4 4.4 1.3 9 2.1 24.9 4.5 45.5 10 57 15.4 17.2 7.9 20.5 9.4 24.2 10.9 7.8 3.1 4.6.4-4.9-4.2-20.8-10-40.1-16.6-61.3-21C286.9 1 274.1-.7 275 .3z"/><path d="M231 2c-4.1.4-8.7 1.3-10.2 1.9-1.5.6-6.3 1.3-10.5 1.5-7.7.5-24.5 3.6-31.3 5.7-5.6 1.8-37.7 15.8-46.5 20.2-4.4 2.2-10.9 5.9-14.5 8.1-3.6 2.3-7.7 4.8-9.2 5.6-2.9 1.6-10.8 8.5-25 22-5 4.7-9.4 8.4-9.9 8.3-.4-.2-3.3 2.8-6.4 6.5-3.1 3.7-7.3 8.7-9.4 11.2-2 2.5-5.7 7.2-8 10.5-2.4 3.3-4.9 6.4-5.5 7-4 3.6-19.7 32.8-23.6 44-1.5 4.4-4.1 12-5.9 17-7.4 21.4-12.5 48.1-10.3 54.8l1 3.2.1-4.7c.1-6.1 5.7-35.5 7.5-39.3.7-1.7 3.4-9.3 5.9-17 9.8-30.1 21.1-49.2 47.9-80.9 5.3-6.3 11.6-13 14-15 2.4-1.9 7.9-6.5 12.3-10.2 21.4-17.7 41-29.4 61.5-36.5 2.9-1.1 5.6-2.3 6-2.7.6-1 7.1-3.6 18-7.2 12.1-4 13.9-4.4 19.5-4.5 2.8-.1 10.2-1.1 16.5-2.3 22.6-4.1 63.5-2.2 82.9 3.8 5.2 1.7 10.9 3 12.6 3 1.6 0 4.3.7 5.9 1.5 1.5.8 3.3 1.2 3.8.9.6-.4 4.5.9 8.7 2.9 4.2 2 15.7 7.3 25.6 11.8 9.9 4.5 20.4 9.8 23.3 11.8 2.8 2 7.1 4.6 9.3 5.8 2.3 1.2 5.8 3.8 7.8 5.7C406.2 67.1 419.4 79 420 79c.4 0 2.7 2.6 5.1 5.7 2.4 3.2 7.5 9.2 11.3 13.3 3.8 4.1 9.5 11.5 12.7 16.4 5.7 8.6 7.1 11.5 4.7 10-.7-.4-.8-.3-.4.5.4.6 1.1.9 1.6.6 1.4-.8 7.1 6.7 6.5 8.6-.3 1-.1 2 .4 2.4.7.4.8-.1.4-1.1s-.2-1.5.3-1.2c2.7 1.7 13.7 29.2 12.9 32.2-.5 1.5-.4 1.7.3.7.8-1.1 1.1-.9 1.7.8.3 1.1.4 2.5.1 3-.3.5-.1 2.3.5 4 1.8 5 .5 4.5-3.6-1.4-2-3-3.9-5.5-4.1-5.5-.8 0 1.8 5.6 3.1 6.6 1.6 1.2 11.5 31.1 11.5 34.6 0 3.2-1.7 1-3-3.7l-1-4 .5 4c.3 2.2.5 5.3.5 6.8 0 1.6.4 2.6 1 2.2.6-.3 1 .3 1 1.4 0 1.1.4 2.2.9 2.5 2.7 1.7 1.7 58.9-1.3 70.7-.7 3-1.7 7.2-2.1 9.4-.4 2.2-1 4.4-1.5 5-.4.5-1.3 3.7-2 7-2.1 10.9-8.2 28.8-13.2 38.8-2.7 5.5-4.4 9.6-3.9 9.2 1.4-.8 1.4-.2-.1 3-.7 1.6-1.4 2.1-1.8 1.4-.5-.7-.9-.5-1.3.6-.4.9-.3 1.3.3 1 .6-.3 1 0 1 .7.1 2.5 6.1-9.7 10.6-21.2 5.9-15.2 8.6-21 9.6-21 .4 0 .8.1.8.3 0 1.5-5.3 15.4-7.7 20.2-1.7 3.3-2.8 6.6-2.5 7.4.3.9 0 1.1-.8.6-.9-.5-1.1-.4-.6.3.8 1.3-1.1 5.3-3 6.5-.8.4-1.4 1.3-1.4 1.8 0 .6.5.7 1.1.4 2.3-1.5-5.4 11.9-8.9 15.3-3 3-3.4 3.2-1.9 1 1.9-3 2.2-4.2.8-3.4-.5.3-1.9 2.7-3.1 5.2-2.4 5.3-7 11.4-8.5 11.4-.5 0-2.1 1.9-3.5 4.2-1.4 2.2-4.3 5.4-6.5 7-4.1 3-7.7 7.6-6.9 8.9.9 1.6-22.3 22.9-25.1 22.9-1.6 0-6.5 4.2-5.9 5.1.3.5 3.4-1.1 7-3.5 3.5-2.5 6.4-4.3 6.4-4.1 0 .2-2.8 2.5-6.2 5.1-3.5 2.7-6.7 5.4-7.1 6.1-.5.7-1.2 1.1-1.7.8-.5-.3-1.1-.1-1.5.4-.3.6.4.8 1.6.6 2.5-.5 12.3-9.1 31.8-28 15.9-15.4 17.4-15.9 3.7-1.2-4.8 5.3-9.4 10.5-10.2 11.6-2.6 3.6-21.7 19.6-30.9 25.7-16 10.7-39.9 23.4-45 23.9-1.6.2-7.3 2.3-12.5 4.8-10.5 4.9-19.5 7.4-37.5 10.6-15.9 2.9-27.3 4.1-37 4-11.8-.1-6.3-1.6 8-2.2 6.6-.3 15.6-1.2 20-2.1 4.4-.8 11.3-2 15.3-2.6 3.9-.7 7.2-1.6 7.2-2.1 0-1.3 6.3-3.7 15-5.9 4.1-1 14.5-5 23-8.9 8.5-3.9 16.1-6.9 16.8-6.6.7.3 1.1.1.8-.4-.7-1.1 2.2-2.3 3.5-1.5.5.3.8 0 .7-.7-.2-.7 2-2.7 4.7-4.5 2.8-1.8 6.1-4.2 7.5-5.3 2.4-1.9 2.4-2 .3-1.8-1.2.1-1.9.5-1.7.9.3.4 0 .8-.5.8-2.1 0-2.6.2-5.3 2.1-1.5 1.1-5.2 3.1-8.2 4.4-3.1 1.4-8 4.1-10.9 6-5 3.3-14.9 7.6-34 14.6-4.3 1.6-9.8 2.9-12.2 2.9-2.4 0-5.6.5-7.2 1.1-7 2.6-44.3 8-54.1 7.8-5.5-.2-5.6-.2-1.7-.9 3.2-.6 2.4-.7-4-.8-5.4 0-7.2.3-5.5.8l2.5.8-2.5.2c-2.3.1-2.4.2-.5 1.1 3.1 1.4-16.9.1-32-2.2-13.6-2-22.3-4.3-39-10.3-11-3.9-22.9-9.9-21.8-10.9.3-.4.1-.7-.5-.7-.7 0-1.2-.4-1.2-1 0-1 10 2.5 11 3.8.6.8 10.4 4.8 14 5.7 1.4.3-.2-.8-3.5-2.5s-6.2-3.5-6.5-4c-.3-.5-5.8-3.4-12.3-6.4-6.4-3-15.2-7.9-19.5-10.8-4.3-2.9-10.6-6.9-14.1-8.8-7-3.9-17.7-11.9-18-13.5-.3-1.6-9.2-10.4-14.8-14.6-2.9-2.1-7.9-7.4-11.1-11.6-3.3-4.3-7.2-8.9-8.7-10.3-1.5-1.4-3.8-4.6-5.1-7.2-1.3-2.6-3.8-6.3-5.5-8.3-1.8-2-6.3-9.3-10-16.3-3.8-7-6.9-12.2-6.9-11.6 0 2.8 9.2 19.2 19.6 34.9 8.9 13.5 13.4 19.3 22.1 27.9 5.9 6 9.4 10 7.6 8.8-5.2-3.7-23.6-23.6-30-32.7-3.4-4.7-9.6-14.4-13.9-21.5-4.2-7.2-7.9-12.8-8.1-12.6-.3.2 0 1.3.6 2.4.5 1 1.2 3.2 1.5 4.8.3 1.5 1.5 4.1 2.6 5.6s4.1 6.7 6.6 11.5c4.8 9.1 7.9 14.1 9.8 15.8 3.5 3.2 11.8 13.6 12 15.2.2 1 .7 1.8 1.3 1.8 1.4 0 14.3 12.7 13.7 13.6-.2.4 1.3 1.9 3.4 3.5 2 1.5 6.6 5.2 10.2 8.1 3.6 3 8.8 7.1 11.5 9.3 9 7.3 11.2 9.2 8.8 8.1-1.2-.6-2.5-1.6-2.8-2.1-.3-.6-1.1-1-1.6-1-1.3 0 5.1 5.5 7.3 6.3 1 .3 5.3 3 9.5 5.8 7.7 5.2 22.2 12.5 34.3 17.2 20.6 8 22.4 8.6 29.5 9.2 2.2.2 6.7.9 10 1.5 20.1 3.5 24.8 4.2 32.5 4.5 4.7.3 10.3.8 12.5 1.2l4 .7-4.5.7c-2.6.5-1.1.5 3.5.2 4.4-.3 12.3-.7 17.5-.9 5.2-.2 12.6-.8 16.4-1.5 3.7-.6 10.3-1.5 14.5-1.9 4.2-.5 10.8-1.6 14.6-2.6 13-3.1 43.1-13.3 51.3-17.4 9.5-4.6 23.3-12.8 24.7-14.7 1.4-1.8 7.7-6.3 8.8-6.3.6 0 .2.9-.8 2-1.8 2-1.8 2 1.2 1 1.6-.6 4.5-3.1 6.4-5.6 3.3-4.5 14-14.4 15.5-14.4.4 0-.8 1.7-2.7 3.8l-3.4 3.7 4.2-3.9c2.3-2.2 4-4.2 3.8-4.6-.8-1.2 7.1-8.1 8.6-7.5 1 .4 2.7-1 4.9-3.7l3.3-4.3-4.1 4c-2.3 2.1-4.2 3.5-4.2 3 0-1.8 7.3-7.3 9.3-6.9 1.1.2 1.7.1 1.3-.3-.3-.4.2-1.6 1.1-2.7 1.7-2 1.7-2 0-.7-.9.8-2 1.1-2.4.8-.6-.7 9.6-12.2 10.9-12.2.3 0 1-.4 1.5-.9s.2-.6-.6-.1c-.9.5-1.2.3-.9-.6.3-.8 1.4-1.4 2.6-1.4 1.1 0 2.4-.3 2.8-.7.3-.4-.3-.5-1.5-.3-1.4.3-2.1 0-1.8-.8.2-.7.9-1.3 1.5-1.3.7-.1 1.5-.3 2-.4.4-.1 1.1-.2 1.5-.1.5.1.6-.3.3-.8-.4-.5-.2-1.2.4-1.6.5-.3 1-1.2 1-1.8-.1-.7-1.2.1-2.6 1.8-4.8 5.5-1.7.1 4.9-8.8 3.7-4.9 7.9-11.4 9.4-14.5 1.5-3.2 3.7-7.1 4.9-8.7 2-2.7 9.4-20.6 12.3-29.8 1.4-4.1 3.7-5.2 2.7-1.2-1.3 5 .4 2.3 2.3-3.8 1-3.4 2.4-7.6 3-9.2 2.2-5.7 7.4-28 7.8-33.3.3-2.8.9-5.2 1.4-5.2 1.3 0 1.1-4.8-.2-5.2-.8-.3-1.3-7.9-1.5-24.3-.7-40.7-.9-45.9-2.2-50.1-.6-2.3-1.3-6.4-1.4-9.1-.2-2.8-.5-4.9-.8-4.8-.3.2-.7-1.4-.7-3.5-.2-3.8-2.4-9.5-4.1-10.2-.8-.3-6.7-13.1-8.8-19.3-1.2-3.6-1.2-3.8.1-2.1.8 1.1 1.5 2.4 1.5 2.9 0 .4.8 1.6 1.7 2.5 1.6 1.6 1.6 1.6.9-.3-.5-1.1-1.1-3.1-1.4-4.5-.2-1.4-1-3.2-1.6-4-.6-.8-2.2-3.5-3.6-6-1.3-2.5-2.6-4.7-2.9-5-.9-.8-8.1-11.9-8.1-12.5 0-.4.5-.3 1.2.1s.8.3.4-.5c-.4-.6-1.1-.9-1.6-.6-.4.3-2.7-2.6-5-6.3-2.4-3.7-5.8-9-7.6-11.9-1.8-2.8-6.2-8.4-9.7-12.5-10.1-11.6-16.7-20-16.2-20.8.2-.4-1-2-2.7-3.6-2.9-2.7-3-2.8-1.8-.5 1.2 2.4 1.1 2.3-2.6-.6-2.1-1.7-4.8-4.1-5.9-5.3-4.4-4.8-35.2-27-37.6-27-1.5 0-8.9-4.2-8.9-5.1 0-.8-15.1-8.3-21.2-10.5C327.1 15 303.1 8.6 291 7c-4.7-.6-10.7-1.6-13.5-2.1C263.1 2 242.8.8 231 2zm258.5 228l.5 7.5-1.5-8c-.7-4.4-1.6-9.6-1.9-11.5l-.6-3.5 1.6 4c.8 2.2 1.7 7.4 1.9 11.5zm2.5 42.5c-.7 7.7-1.7 14.7-2.2 15.5-1 1.7-.3-9.5 1.5-24.5 1.7-14.1 2.2-7.8.7 9zm-5.3 22.7c-.3.7-.5.2-.5-1.2s.2-1.9.5-1.3c.2.7.2 1.9 0 2.5zm-2.5 10.5c-.5 5.3-4.3 16.5-4.9 14.7-.4-1.1 3.3-17 4.3-18.6 1-1.6 1.1-.7.6 3.9zm-42.8 89.5c-2.5 4.3-6.7 9.9-7.1 9.5-.5-.5 6.5-10.7 7.4-10.7.2 0 .1.6-.3 1.2zM167 11.9c-11.5 4.2-16.8 6.4-13.5 5.7 2.5-.5 25.9-8.7 26.4-9.2 1.3-1.2-3.6.1-12.9 3.5z"/><path d="M266 13.9c0 1.4 8.3 2.3 14.2 1.4l5.3-.7-4-.7c-5.6-1.1-15.5-1.1-15.5 0zM287.3 15.7c.9.2 2.5.2 3.5 0 .9-.3.1-.5-1.8-.5-1.9 0-2.7.2-1.7.5zM294.8 16.7c.7.3 1.6.2 1.9-.1.4-.3-.2-.6-1.3-.5-1.1 0-1.4.3-.6.6zM292 18.3c0 .3 2.6 1.1 5.7 1.7 3.2.7 6.4 1.4 7.3 1.6.8.3.2-.2-1.5-1-3.2-1.5-11.5-3.1-11.5-2.3zM324 26.4c0 .2.7.7 1.6 1 .8.3 1.2.2.9-.4-.6-1-2.5-1.4-2.5-.6zM339 31.1c0 .5.5.7 1 .4.6-.3 1-.8 1-1.1 0-.2-.4-.4-1-.4-.5 0-1 .5-1 1.1zM343 33.6c0 .2 2.1 1.4 4.8 2.5 11.6 5 23.8 12.6 40.5 25.4 5.1 3.9 12.4 9.2 16.2 12 3.9 2.7 9.8 7.4 13.3 10.3 3.5 3 6.6 5.2 6.8 4.9.3-.3-.6-1.4-2-2.5-1.5-1.1-2.6-2.4-2.6-2.9 0-1.4-9.2-9.8-16.5-15.4-7.8-5.8-15.4-10.6-35-21.9-8.8-5.1-16.7-9.8-17.5-10.5-1.6-1.3-8-2.8-8-1.9zM376.4 33.9c.4.6 2.2 1.8 3.9 2.7 3 1.4 3.1 1.4 1.2-.1-3-2.5-5.9-3.9-5.1-2.6zM361.4 39.2c4 3.1 14.1 8.6 10.5 5.8-1.4-1.2-5-3.5-8-5.1-4.1-2.3-4.7-2.4-2.5-.7zM385 40c.6 1.1 1.4 1.9 1.8 1.8 1-.3 5.1 2 9.3 5.3 2 1.6 4 2.9 4.4 2.9 1.1 0-4.6-4.4-10.8-8.4-4.5-2.8-5.5-3.2-4.7-1.6zM226.8 54c-11.8 1.1-21.5 3-35.9 7.1l-6.5 1.9-4.5 9.7-4.5 9.8 14.5.7c14.1.7 37.2 3.6 49.6 6.1l6 1.2.3 25c.2 13.7 0 27.7-.3 31-.6 5.8-.8 6.1-4.8 8.4-12.6 7.2-43.3 28.4-62.1 42.9-5.9 4.6-11.4 8.6-12.1 8.8-.9.4-45.1-11.5-61.5-16.5-2.2-.7-2.5-1.3-2.2-4.7.9-12 7.5-41.3 12.7-56.8 1.3-3.9 2.3-7.2 2.1-7.3-.3-.3-17.4 1.5-20.3 2.2-4.2 1-20.2 24.6-28.5 42.2-9.9 21-15.7 42.4-17.9 66.6-.8 9-.7 12.2.1 13.3.7.7 4.3 3.7 8 6.5l6.7 5.2 1.3 6.9c.6 3.8 1.4 6.7 1.7 6.5.2-.3-.1-3.5-.8-7.1-1-6.1-.9-7.1 1.2-12.4 5.4-13.6 24.9-50.2 31.2-58.7 1.8-2.4 1.5-2.4 35.7 7.7 12.9 3.9 24.9 7.4 26.6 7.9 2.7.8 3.2 1.5 4.4 6.7 2.1 9.5 13.4 46.5 20.4 66.6 3.6 10.4 6.3 19.3 6 19.8-.3.5-.7 1.9-.9 3.1-.3 3-39.3 57.3-40.8 56.9-2.4-.6-16.5-6.8-27.2-12-20.3-10-36.8-20.2-39-24.1l-1.5-2.6.6 2.8c.4 1.7-.6 7-2.7 14.3-3.8 13.5-4.2 12 6.9 26.9 17.4 23.5 44 45.8 69.7 58.7 7.5 3.8 24.6 10.8 26.3 10.8.5 0 5.9-3.6 12-8 10.3-7.5 11.4-8 16.4-8.1l5.3-.2-5.6-.6c-5.3-.6-6-1-14.5-8.8-14.4-13.2-40.6-41.2-43.4-46.3-.7-1.4 10.5-17.9 34.9-51.6l5.9-8.1 50.3.3 50.3.2 2.9 3.6c1.6 2 2.7 3.9 2.5 4.2-.3.2-1.7-1.4-3.2-3.6-1.8-2.7-3.4-4-4.9-4-2.1 0-2.1.1.3 1.3 1.4.7 4.8 4.5 7.7 8.5 2.8 3.9 5.3 6.7 5.5 6 .4-1.2 30 39.5 30.2 41.7.2 2.3-18.5 23.3-35.7 40.1L284.9 419l-5.2.1-5.2.2 5.5.6c4.7.6 6.8 1.6 14.5 7.2 5 3.7 10 7.1 11.1 7.7 2.6 1.4 4.9.8 16.9-4.4 35.5-15.1 65.5-39.8 86.6-71l5-7.5-3.6-12.5c-2.8-9.9-3.3-12.9-2.4-14.5.6-1.1.9-2.3.6-2.5-.2-.3-1 .8-1.6 2.4-1.5 3.5-16.9 13.2-36.7 23.1-14 7-30.5 14.4-30.9 13.9-1.5-1.7-40.9-57.6-41.2-58.4-.2-.6 3.9-13.9 9.1-29.5 5.2-15.6 11.8-36.5 14.5-46.3 2.8-9.8 5.3-18.1 5.5-18.4.6-.5 33-10.2 51.5-15.3l11.4-3.2 2 2.4c5.8 7.1 22.9 38.9 30.3 56.2l3.4 7.8-3.1 14.2c-4.1 19.2-4.2 20.1-1.9 13.2 1.1-3.3 2-6.8 2-7.8s.4-1.6.9-1.3c.4.3.6-.7.4-2.2-.3-1.9-.2-2.3.5-1.3.7 1 1.6-.2 3.3-4.8 1.2-3.4 3.5-8 5.1-10.2 1.6-2.2 2.6-4.4 2.3-4.9-.3-.5 0-1.2.6-1.6.8-.5.9-.3.4.7-.4.8.8-.4 2.8-2.6 2.8-3.2 3.5-4.6 3.2-7-.2-1.7-.7-6.4-1-10.5-1.6-22-9-48-19.7-69.4-7.7-15.4-22.3-37-25.7-38.1-.9-.2-5.9-.9-11.1-1.5-6.9-.8-10.3-1.6-12.5-3.2l-3-2.1 2.7 2.9c4.6 4.9 11.6 28.8 15.8 53.7 2.8 16.8 2.9 16.2-2.7 17.6-2.7.7-16.7 4.6-31.2 8.7s-26.9 7.3-27.5 7.1c-.6-.3-8.5-6-17.6-12.8-16.5-12.4-43.9-31.2-55.8-38.3l-6.2-3.8.2-30.6.3-30.7 6-1.2c15.1-3.1 36.9-5.5 50.7-5.7 12-.1 14.4-.3 13.5-1.4-1.2-1.5-7.5-14.5-8.4-17.4-.6-1.9-6-3.7-22.3-7.4-17.7-4-39.4-5.2-60.2-3.4zm-19.4 26c-1.1.4-6.5.5-12 0l-9.9-.7 12-.1c7.3 0 11.2.3 9.9.8zm-97.5 55.2c-2.8 8.8-7 27.9-8.4 38.3-1.1 7.8-2.1 8.5-3.4 2.6-1.5-7-1.4-10.8.5-19.7 2.5-12.4 7.1-24.6 10.5-27.7 1.6-1.5 3.1-2.7 3.3-2.7.2 0-.9 4.1-2.5 9.2zM239 159.4c0 .5-39.4 28.6-43.5 31.1-2.8 1.6-2.8 1.6.5-1.4 7.1-6.3 21.8-17.1 32-23.5 10.8-6.8 11-6.9 11-6.2zm194 94c0 .2-.8 1-1.7 1.7-1.6 1.3-1.7 1.2-.4-.4 1.3-1.6 2.1-2.1 2.1-1.3zm-5.3 5.6c-.7 1.7-1.3 2.6-1.5 2.1-.3-1 1.5-5.1 2.2-5.1.3 0-.1 1.4-.7 3zm-2 9.2c-.3.8-.6.5-.6-.6-.1-1.1.2-1.7.5-1.3.3.3.4 1.2.1 1.9zm-118.8 51.3c0 1.1-2.5-2-4.1-5-.5-1.1.2-.7 1.6 1 1.4 1.6 2.5 3.4 2.5 4zm-157.6 93c9.2 4.8 16 7.8 29.9 12.9 4.6 1.7 5.5 3.7 2.2 5-5 1.9-41.3-18.1-53.6-29.6-4.2-3.9-4.2-3.8 3.5 1.2 4.3 2.9 12.4 7.6 18 10.5zM319.1 429c-2.4 2.1-6.1 2.7-6.1 1 0-.5 1.5-1.4 3.3-1.9 4.9-1.4 5.4-1.2 2.8.9zM86.9 57.7c-1.3 1.6-1.2 1.7.4.4.9-.7 1.7-1.5 1.7-1.7 0-.8-.8-.3-2.1 1.3zM416 63.4c0 .2.8 1 1.8 1.7 1.5 1.3 1.6 1.2.3-.4s-2.1-2.1-2.1-1.3zM432 79.6c0 .6 1.2 2.1 2.6 3.5 1.4 1.3 5.6 6.4 9.2 11.4 3.7 4.9 7 9.2 7.4 9.5.3.3 2.9 3.6 5.7 7.4 2.8 3.8 5.1 6.6 5.1 6.3 0-1.4-4.7-8.5-8.3-12.7-2.1-2.4-5.8-7.4-8.2-11-4.4-6.6-13.5-16.3-13.5-14.4zM425.5 94c.3.5.8 1 1.1 1 .2 0 .4-.5.4-1 0-.6-.5-1-1.1-1-.5 0-.7.4-.4 1z"/><path d="M340.9 96.8c1.4 1.1 3.8 2.7 5.5 3.7l3.1 1.7-2.4-2c-1.4-1.1-3.8-2.7-5.5-3.7l-3.1-1.7 2.4 2zM431 101c1.7 2.2 3.3 4 3.5 4 .2 0-.8-1.8-2.2-4-1.5-2.2-3.1-4-3.6-4s.6 1.8 2.3 4zM350 102.3c0 .2 4.4 3.6 9.8 7.6 5.3 3.9 8.1 5.7 6.1 3.9-3.9-3.5-15.9-12.2-15.9-11.5zM438.5 110.4c1 1.4 1.9 2.6 2.2 2.6.7 0-1.7-3.9-2.8-4.6-.6-.3-.3.5.6 2zM130.9 110.7c-1.3 1.6-1.2 1.7.4.4.9-.7 1.7-1.5 1.7-1.7 0-.8-.8-.3-2.1 1.3zM445 111.8c1.2 1.8 2.5 3.1 2.8 2.7.3-.3-.7-1.8-2.3-3.3l-2.8-2.7 2.3 3.3zM126.4 114.2l-1.9 2.3 2.3-1.9c2.1-1.8 2.7-2.6 1.9-2.6-.2 0-1.2 1-2.3 2.2zM121.9 117.7c-1.3 1.6-1.2 1.7.4.4.9-.7 1.7-1.5 1.7-1.7 0-.8-.8-.3-2.1 1.3zM443.9 117.5c.5 1.1 1.7 2.9 2.6 4l1.6 2-1-2c-.5-1.1-1.7-2.9-2.6-4l-1.6-2 1 2zM448.6 125.3c.3 1 .9 1.5 1.2 1.2.3-.3 0-1.1-.7-1.8-1-.9-1.1-.8-.5.6zM453 132.8c1.3 2.6 2.5 4 3.2 3.6.8-.5.9-.1.5 1-.5 1.1-.3 1.5.5 1 .7-.5.9-.2.6.8-.4.8-.1 1.5.7 1.5 1 0 1.1-.7.5-2.3-1.3-3.4-3.4-6.4-4.4-6.4-.5 0-1.5-.8-2.3-1.8-.8-.9-.5.2.7 2.6zM461 148.4c0 1.1 5.9 12.9 6 11.9 0-1.6-4.7-12.3-5.4-12.3-.4 0-.6.2-.6.4zM483.1 163c1.4 3.1 1.9 3.6 1.9 2.4 0-.6-.7-1.9-1.6-3-1.4-1.8-1.4-1.8-.3.6zM3.1 228.6c0 1.1.3 1.4.6.6.3-.7.2-1.6-.1-1.9-.3-.4-.6.2-.5 1.3zM498.3 242.5c0 11.7.1 12.1.6 4.5.3-4.7.3-10.5 0-13-.4-2.5-.6 1.2-.6 8.5zM498.3 268.5c0 3.8.2 5.3.4 3.2.2-2 .2-5.2 0-7-.2-1.7-.4-.1-.4 3.8zM69.1 273.5c-.1 1.1 1.3 7.1 2.9 13.3 1.7 6.2 2.8 11.8 2.4 12.4-.4.6-.3.8.3.5.6-.4 1.6 1.2 2.3 3.8.7 2.5 1.4 4.4 1.7 4.2.2-.2-1.4-6.7-3.6-14.3-2.1-7.6-4.4-15.7-4.9-17.9-.5-2.2-1-3.1-1.1-2zM1.2 275.5c0 1.1.4 3.3.8 5 .7 2.7.8 2.7.8.5 0-1.4-.4-3.6-.8-5-.6-2-.8-2.1-.8-.5zM417.6 293.6c-.4 1.4-.5 2.8-.3 3.1.3.2.8-.8 1.1-2.3.4-1.4.5-2.8.3-3.1-.3-.2-.8.8-1.1 2.3zM3.5 294.9c-.9 1.6.6 9 2.1 10.2.8.6 1.4 1.8 1.4 2.7 0 .8.2 1.3.5 1.1.2-.3-.1-3.4-.9-7-.7-3.8-1.5-5.8-1.9-4.9-.4.9-.5.5-.3-.8.4-2.3.1-2.8-.9-1.3zM413.2 307.7c-1.2 3.7-2 6.9-1.8 7.1.2.2 1.4-2.7 2.6-6.3 1.2-3.6 2-6.8 1.8-7-.2-.3-1.4 2.6-2.6 6.2zM79.1 309.5c.1 1.9 1.8 5.1 1.8 3.5 0-.8-.4-2.2-.9-3-.5-.8-.9-1.1-.9-.5zM9.1 315.5c.1 1.9 1.8 5.1 1.8 3.5 0-.8-.4-2.2-.9-3-.5-.8-.9-1.1-.9-.5zM81.6 317c.3 1.4 1.1 3.2 1.6 4 .6 1 .7.7.2-1-.3-1.4-1.1-3.2-1.6-4-.6-1-.7-.7-.2 1zM11.2 329.1c.6 1.6 1.2 2.8 1.5 2.6.7-.7-.8-5.7-1.8-5.7-.4 0-.3 1.4.3 3.1zM479.6 346.5c-.9 2.6-.7 3.2.5 1.2.6-1 .9-2.1.6-2.3-.2-.3-.7.2-1.1 1.1zM471 364.2c-5 9.8-10.3 19-14 23.8-3.7 4.9-4.6 6.5-3.1 5.5 2.6-1.5 15.7-23.2 20.1-33.3 3.2-7.1 1.3-4.7-3 4zM457.3 368.7c-.3 1-.8 2.2-1 2.8-.3.5.3.1 1.1-.9 1.6-2 2.1-3.6 1.1-3.6-.3 0-.8.8-1.2 1.7zM65.1 421c3.5 4.3 5.9 6 5.9 4.3 0-.5-2.1-2.6-4.7-4.8l-4.8-3.9 3.6 4.4zM232.6 421.1c7.3.4 19.4.4 27 0 12.5-.7 11.2-.8-13.1-.8-23.7 0-25.4.1-13.9.8zM372.7 458.4c-4.8 2.9-6.1 4.3-2.2 2.3 3.1-1.6 7.4-4.6 6.5-4.6-.3 0-2.2 1-4.3 2.3zM373 467c-2.5 1.6-4.1 3-3.7 3 1 0 9.7-5 9.7-5.6 0-.9-1.7-.1-6 2.6zM168.3 477.7c.4.3.5.9.1 1.4-.3.5.3.9 1.3.9s3.1.7 4.7 1.5c6.5 3.4 20.1 6.4 31.6 7 6.3.3 13.9.8 16.9 1.1 3.2.4 5.1.2 4.7-.4-.3-.5-5.3-1.2-11.1-1.6-11.6-.7-24.2-3.1-37.5-7-10.8-3.1-11.7-3.4-10.7-2.9zM331.5 486c-1.3.6-1.5.9-.5.9.8 0 2.2-.4 3-.9 1.8-1.2.2-1.2-2.5 0zM323 489c-.8.5-1 1-.5 1 .6 0 1.7-.5 2.5-1s1.1-1 .5-1c-.5 0-1.7.5-2.5 1zM287 497c-1.3.8-1.3 1 .2 1 .9 0 2-.5 2.3-1 .8-1.3-.5-1.3-2.5 0z"/></svg>