<?xml version="1.0" standalone="no"?>
<!DOCTYPE svg PUBLIC "-//W3C//DTD SVG 20010904//EN"
 "http://www.w3.org/TR/2001/REC-SVG-20010904/DTD/svg10.dtd">
<svg version="1.0" xmlns="http://www.w3.org/2000/svg"
 width="350.000000pt" height="350.000000pt" viewBox="0 0 350.000000 350.000000"
 preserveAspectRatio="xMidYMid meet">
<metadata>
Created by potrace 1.11, written by Peter Selinger 2001-2013
</metadata>
<g transform="translate(0.000000,350.000000) scale(0.100000,-0.100000)"
fill="#000000" stroke="none">
<path d="M1493 2858 c-60 -62 -94 -168 -54 -168 28 0 93 122 89 167 l-3 34
-32 -33z"/>
<path d="M1743 2859 c-24 -17 -43 -34 -43 -38 0 -5 14 -39 31 -75 l31 -66 67
6 c72 8 76 11 92 67 15 56 9 68 -46 104 -61 40 -78 40 -132 2z"/>
<path d="M2040 2853 c0 -7 18 -46 40 -88 28 -53 40 -69 40 -52 0 13 -12 46
-26 73 -28 54 -54 86 -54 67z"/>
<path d="M2023 2526 c-37 -10 -48 -19 -79 -71 -37 -63 -37 -76 2 -102 18 -12
25 -9 62 23 49 42 72 81 72 123 0 38 -6 41 -57 27z"/>
<path d="M1544 2511 c-2 -2 -4 -28 -4 -57 l0 -54 53 -30 c63 -36 77 -37 115
-5 l30 25 -36 65 -36 65 -58 -3 c-33 -1 -61 -4 -64 -6z"/>
<path d="M1685 2253 c-3 -18 -10 -33 -15 -33 -5 0 -33 -11 -62 -23 -29 -13
-56 -24 -61 -25 -4 -1 -30 -14 -59 -29 -55 -29 -50 -46 6 -19 19 9 43 16 54
16 11 0 23 7 26 16 5 13 9 14 21 4 13 -11 18 -10 29 5 12 17 16 15 54 -19 l41
-38 31 18 c16 10 30 22 30 27 0 4 -14 0 -30 -10 -23 -13 -35 -15 -47 -7 -33
21 -36 38 -12 76 26 40 40 46 59 23 10 -13 14 -13 26 0 13 12 17 12 33 -3 17
-16 17 -18 -3 -41 l-21 -24 29 7 29 7 -17 -26 c-18 -27 -18 -27 6 -20 12 4 27
11 33 16 12 12 45 12 45 0 0 -13 32 -23 39 -12 8 12 141 -68 141 -85 0 -8 -4
-14 -10 -14 -5 0 -19 -9 -31 -21 -18 -18 -24 -19 -50 -9 -16 7 -29 18 -29 26
0 8 -6 11 -15 8 -11 -5 -17 3 -21 25 -7 35 -24 32 -24 -5 0 -13 -4 -24 -9 -24
-5 0 -7 -10 -4 -21 5 -18 3 -20 -16 -14 -19 6 -20 4 -11 -20 13 -34 13 -38 -3
-32 -16 6 -40 -11 -56 -40 -9 -19 -9 -23 2 -23 7 0 19 11 26 23 10 18 19 23
38 19 13 -2 27 -11 30 -18 3 -8 9 -11 14 -8 5 3 12 -3 17 -13 5 -13 8 -8 12
22 l5 40 48 -3 c42 -3 47 -1 47 17 0 22 14 28 25 11 3 -5 16 -10 29 -10 12 0
31 -7 42 -15 19 -14 19 -14 -3 -15 -33 0 -39 -21 -13 -42 46 -38 94 -13 53 28
-10 9 -13 15 -8 13 48 -22 65 -36 75 -60 8 -18 17 -26 24 -22 6 4 16 8 21 8
21 1 6 65 -25 110 -51 74 -129 128 -269 185 -164 67 -155 62 -165 96 -9 28
-10 29 -77 29 l-68 0 -6 -32z m510 -218 c22 -13 33 -25 25 -25 -8 0 -23 -7
-33 -14 -17 -13 -16 -14 10 -13 15 1 31 6 34 11 8 10 54 -57 64 -94 7 -24 7
-24 -12 -7 -11 9 -23 14 -27 10 -4 -4 -4 0 -1 10 5 12 0 19 -16 26 -13 5 -41
21 -62 35 -21 14 -42 26 -47 26 -5 0 -7 7 -5 15 3 8 7 22 10 30 6 20 13 19 60
-10z"/>
<path d="M1550 2100 c-8 -11 -20 -18 -27 -15 -7 2 -13 3 -13 2 0 -1 -4 -17 -9
-35 -6 -20 -6 -30 0 -27 5 4 9 2 9 -4 0 -16 -35 -22 -64 -11 -15 5 -28 10 -29
10 -1 0 -2 -14 -2 -31 0 -21 7 -34 22 -42 38 -21 86 -104 91 -159 3 -37 2 -49
-7 -44 -6 4 -11 2 -11 -4 0 -7 14 -10 38 -8 33 3 37 1 39 -22 6 -111 18 -196
27 -202 14 -9 26 23 15 38 -12 15 -1 44 16 44 7 0 19 -7 26 -16 11 -14 11 -18
-3 -28 -18 -13 -8 -43 11 -32 6 4 11 0 11 -9 0 -11 -7 -14 -26 -11 -17 3 -24
1 -21 -7 2 -7 0 -20 -5 -30 -6 -11 -4 -40 3 -79 l12 -61 19 23 c19 24 25 11 8
-20 -7 -13 -6 -21 5 -30 20 -17 8 -33 -15 -20 -28 15 -38 11 -15 -6 20 -16 20
-16 -1 -10 -17 5 -23 0 -34 -35 l-14 -41 -117 7 -117 7 -74 -60 c-41 -34 -97
-81 -123 -105 l-49 -44 115 -17 c294 -43 482 -69 694 -97 127 -16 245 -32 264
-36 l34 -6 -7 -81 c-11 -139 -24 -157 -25 -34 -1 125 16 110 -151 128 -58 6
-168 17 -245 25 -204 22 -225 23 -219 14 3 -5 -2 -9 -10 -9 -9 0 -16 -4 -16
-9 0 -8 -83 3 -101 14 -5 4 -9 1 -9 -4 0 -6 -4 -11 -10 -11 -5 0 -10 7 -10 15
0 8 -4 15 -10 15 -13 0 -13 -10 3 -43 9 -19 22 -28 47 -32 19 -4 54 -11 77
-17 33 -8 39 -13 30 -23 -8 -9 -16 -10 -24 -3 -9 7 -15 6 -19 -6 -4 -10 -14
-14 -28 -11 -11 3 -50 7 -86 9 -36 2 -74 7 -84 12 -13 5 -23 2 -34 -12 -12
-16 -14 -16 -9 -1 4 9 3 17 -2 17 -13 0 -22 -44 -11 -48 6 -2 10 -11 10 -20 0
-12 3 -13 12 -4 20 20 40 14 36 -10 -2 -13 -10 -23 -18 -23 -8 0 -15 -6 -14
-12 4 -46 4 -47 77 -57 26 -4 37 -2 37 7 0 8 3 8 9 -2 5 -8 19 -16 31 -18 12
-2 33 -10 48 -18 26 -15 23 -15 -43 -9 -38 3 -89 10 -112 15 -23 5 -87 16
-144 24 -56 9 -105 18 -110 21 -5 3 -9 0 -9 -5 0 -6 3 -11 7 -11 4 0 252 -41
551 -91 299 -50 545 -89 547 -87 3 4 68 186 111 312 32 92 34 107 34 227 0 71
-1 129 -2 130 -2 0 -41 4 -88 9 -276 26 -320 33 -320 51 0 10 -7 45 -16 79 -9
36 -13 77 -9 98 11 65 8 134 -5 142 -9 5 -10 19 -6 44 6 31 5 35 -11 30 -14
-4 -15 -4 -4 4 9 6 11 17 5 33 -4 13 -7 29 -6 35 1 6 -7 19 -19 30 -19 17 -22
18 -33 2 -15 -20 -64 -41 -77 -32 -5 3 -9 1 -9 -4 0 -6 -9 -8 -20 -5 -25 7
-27 33 -2 33 16 1 16 1 0 11 -10 5 -24 9 -30 8 -22 -4 -68 13 -68 23 0 7 14 8
38 3 20 -4 45 -7 55 -6 9 0 17 -6 17 -12 0 -9 2 -9 8 -1 4 6 35 14 70 17 40 3
71 12 83 23 18 17 19 16 21 -22 1 -21 0 -65 -1 -96 -2 -43 1 -58 11 -58 10 0
10 -2 -1 -9 -17 -11 -7 -41 13 -41 19 0 26 31 26 123 l0 78 30 -22 c16 -13 32
-20 36 -17 7 8 -47 58 -62 58 -15 0 -24 23 -24 61 0 32 -23 40 -37 14 -5 -8
-27 -17 -48 -20 -120 -14 -144 -15 -185 -8 l-45 9 -2 59 c-4 146 -8 174 -27
188 -11 8 -16 19 -12 25 4 7 2 12 -5 12 -7 0 -10 13 -7 35 5 40 -1 44 -22 15z
m-90 -131 c0 -6 -4 -7 -10 -4 -5 3 -10 11 -10 16 0 6 5 7 10 4 6 -3 10 -11 10
-16z m105 10 c8 -12 8 -129 0 -137 -6 -6 -27 20 -52 65 -17 32 -17 33 7 58 26
27 35 31 45 14z m295 -415 c0 -15 -4 -23 -11 -19 -6 4 -16 0 -22 -10 -11 -14
-12 -13 -11 12 1 42 2 43 24 43 15 0 20 -7 20 -26z m-170 -125 c0 -5 -7 -9
-15 -9 -15 0 -20 12 -9 23 8 8 24 -1 24 -14z m44 2 c3 -5 -1 -11 -9 -15 -9 -3
-15 0 -15 9 0 16 16 20 24 6z m96 -17 c0 -8 -4 -12 -10 -9 -5 3 -10 10 -10 16
0 5 5 9 10 9 6 0 10 -7 10 -16z m50 -4 c0 -5 -4 -10 -10 -10 -5 0 -10 5 -10
10 0 6 5 10 10 10 6 0 10 -4 10 -10z m-185 -36 c-18 -18 -20 -18 -22 5 -1 14
3 17 17 14 17 -4 17 -7 5 -19z m185 -5 c0 -5 -6 -9 -12 -10 -7 0 -25 -2 -39
-3 -17 -1 -25 3 -22 10 5 14 73 16 73 3z m-46 -70 c-8 -14 -24 -10 -24 6 0 9
6 12 15 9 8 -4 12 -10 9 -15z m-14 -39 c0 -5 -5 -10 -11 -10 -5 0 -7 5 -4 10
3 6 8 10 11 10 2 0 4 -4 4 -10z m-5 -80 c3 -6 -1 -7 -9 -4 -18 7 -21 14 -7 14
6 0 13 -4 16 -10z m-15 -57 c0 -7 -9 -13 -20 -13 -15 0 -20 7 -20 25 0 23 2
24 20 13 11 -7 20 -18 20 -25z m-116 -39 c8 -20 -15 -27 -55 -17 -49 13 -47
30 5 30 30 1 46 -4 50 -13z m128 -17 c4 -7 12 -6 22 2 14 12 16 10 16 -7 0
-23 -41 -43 -48 -23 -2 6 -14 8 -26 5 -27 -6 -46 24 -24 37 15 10 50 1 60 -14z
m-397 -368 c4 -6 13 -8 21 -5 8 3 14 -1 14 -9 0 -18 12 -19 28 -3 9 9 22 8 54
-2 27 -9 37 -15 26 -18 -10 -2 -18 -10 -18 -18 0 -8 -7 -14 -15 -14 -8 0 -15
-7 -15 -15 0 -8 -5 -15 -10 -15 -6 0 -10 7 -8 16 2 10 -5 18 -17 21 -36 6 -70
12 -85 12 -8 1 -22 5 -30 11 -12 7 -10 12 9 29 27 24 37 26 46 10z m782 -151
c-3 -8 -6 -5 -6 6 -1 11 2 17 5 13 3 -3 4 -12 1 -19z"/>
<path d="M1398 2099 c-10 -5 -18 -16 -18 -23 0 -8 -7 -20 -16 -27 -31 -26 9
-124 75 -183 32 -29 25 -14 -14 29 -19 22 -37 52 -40 67 -4 15 -11 30 -16 33
-17 11 -9 34 26 71 44 46 45 58 3 33z"/>
<path d="M1972 1878 c-7 -7 -12 -25 -12 -40 0 -21 5 -28 19 -28 23 0 26 4 36
48 6 27 4 32 -12 32 -11 0 -24 -5 -31 -12z"/>
<path d="M2310 1787 c0 -7 -16 -32 -36 -56 -45 -52 -37 -66 11 -18 22 22 35
45 35 61 0 14 -2 26 -5 26 -3 0 -5 -6 -5 -13z"/>
<path d="M2103 1780 c-15 -6 -23 -18 -23 -33 0 -49 57 -65 80 -22 12 22 11 27
-5 45 -20 22 -21 22 -52 10z"/>
<path d="M2155 1645 c-16 -7 -23 -14 -15 -14 8 0 26 6 40 14 32 18 14 18 -25
0z"/>
<path d="M1386 865 c2 -11 4 -23 4 -27 0 -15 20 -8 20 7 0 8 -4 15 -9 15 -5 0
-11 6 -14 13 -2 6 -3 3 -1 -8z"/>
<path d="M1240 800 c0 -14 15 -19 29 -11 9 6 7 10 -8 14 -12 3 -21 1 -21 -3z"/>
</g>
</svg>
